<svg xmlns="http://www.w3.org/2000/svg" width="100" height="100" viewBox="0 0 100 100"><path d="M50 4.645C24.99 4.645 4.645 24.99 4.645 50c0 25.008 20.346 45.356 45.354 45.356 25.01 0 45.355-20.348 45.355-45.356C95.355 24.99 75.008 4.645 50 4.645zm0 3.938c22.195 0 40.364 17.55 41.368 39.503L79.58 36.3l-6.34 6.342-22.54-24.33-22.313 24.02-6.135-6.133L8.587 49.863C8.66 27.09 27.207 8.584 50 8.584zM70.45 45.428L50.967 64.914 31.173 45.12l19.524-21.016 19.755 21.324zM8.91 55.11l13.342-13.342 25.93 25.93-18.418 18.42C18.548 79.807 10.558 68.43 8.91 55.11zM50 91.416c-5.87 0-11.455-1.234-16.52-3.445l46.1-46.1 11.675 11.673C89.45 74.727 71.642 91.416 50 91.416z"/></svg>